<svg xmlns="http://www.w3.org/2000/svg" viewBox="0 0 200 200" fill="none">
  <defs>
    <linearGradient id="letterGradient" x1="0%" y1="0%" x2="100%" y2="100%">
      <stop offset="0%" stop-color="#7C3AED" /> 
      <stop offset="100%" stop-color="#3B82F6" /> 
    </linearGradient>
    <linearGradient id="accentGradient" x1="0%" y1="0%" x2="100%" y2="0%">
      <stop offset="0%" stop-color="#A855F7" /> 
      <stop offset="100%" stop-color="#7C3AED" /> 
    </linearGradient>
    <filter id="glow" x="-20%" y="-20%" width="140%" height="140%">
      <feGaussianBlur stdDeviation="4" result="blur" />
      <feComposite in="SourceGraphic" in2="blur" operator="over" />
    </filter>
  </defs>
  
  <path d="M55 40H95C128.137 40 155 66.863 155 100C155 133.137 128.137 160 95 160H55V40Z
           M75 60V140H95C117.091 140 135 122.091 135 100C135 77.909 117.091 60 95 60H75Z" 
        fill="url(#letterGradient)" 
        fill-rule="evenodd" 
        filter="url(#glow)"/>

  <path d="M30 170C50 165 70 160 90 165C110 170 130 165 150 160C170 155 190 160 210 165" 
        stroke="url(#accentGradient)" stroke-width="3" fill="none" 
        stroke-linecap="round" opacity="0.8"/>
  <circle cx="40" cy="120" r="2" fill="#F8FAFC" /> 
  <circle cx="160" cy="80" r="2" fill="#F8FAFC" />
  <circle cx="130" cy="50" r="1.5" fill="#F8FAFC" opacity="0.7" />
  <circle cx="70" cy="150" r="1.5" fill="#F8FAFC" opacity="0.7" />
    <path d="M30 100H170" stroke="#94A3B8" stroke-width="0.5" stroke-dasharray="5 3" opacity="0.3" /> 
  <path d="M100 30V170" stroke="#94A3B8" stroke-width="0.5" stroke-dasharray="5 3" opacity="0.3" />
    <path d="M155 70C165 75 170 85 170 100" stroke="#A855F7" stroke-width="0.75" fill="none" stroke-dasharray="3 2" opacity="0.6" />
  <path d="M155 130C165 125 170 115 170 100" stroke="#A855F7" stroke-width="0.75" fill="none" stroke-dasharray="3 2" opacity="0.6" />
    <path d="M45 60L47 65L42 62.5H48L43 65L45 60Z" fill="#F8FAFC" opacity="0.8" /> 
  <path d="M150 140L152 145L147 142.5H153L148 145L150 140Z" fill="#F8FAFC" opacity="0.6" />
</svg>